<?xml version="1.0" standalone="no"?>
<!DOCTYPE svg PUBLIC "-//W3C//DTD SVG 20010904//EN"
 "http://www.w3.org/TR/2001/REC-SVG-20010904/DTD/svg10.dtd">
<svg version="1.0" xmlns="http://www.w3.org/2000/svg"
 width="800.000000pt" height="800.000000pt" viewBox="0 0 800.000000 800.000000"
 preserveAspectRatio="xMidYMid meet">
<metadata>
Created by potrace 1.14, written by Peter Selinger 2001-2017
</metadata>
<g transform="translate(0.000000,800.000000) scale(0.100000,-0.100000)"
fill="#000000" stroke="none">
<path d="M5421 6369 c-558 -121 -1016 -221 -1017 -222 -1 -1 -6 -115 -11 -252
l-8 -250 -65 94 c-36 51 -64 98 -62 103 1 5 -1 7 -6 4 -4 -2 -14 4 -21 16 -10
16 -10 19 1 13 7 -4 2 3 -12 15 -14 12 -18 19 -10 15 8 -4 3 3 -11 16 -14 13
-32 33 -40 44 -13 19 -13 19 5 5 11 -8 1 13 -23 48 -23 34 -44 62 -47 62 -3 0
-2 -5 1 -11 5 -7 2 -7 -11 0 -20 11 -2536 403 -2543 396 -2 -3 216 -563 484
-1245 l487 -1242 -30 -31 c-39 -42 -52 -69 -52 -107 0 -71 59 -132 145 -150
30 -6 59 -9 64 -6 16 10 433 -73 478 -95 24 -11 54 -19 67 -17 l25 3 -40 65
c-21 36 -39 74 -39 86 0 35 46 69 93 68 46 -2 70 -24 121 -109 26 -46 29 -48
42 -30 28 38 28 83 1 135 -14 28 -23 50 -19 50 4 0 144 -16 312 -35 405 -47
842 -95 858 -95 21 0 13 -14 -17 -32 -71 -40 -82 -150 -21 -213 19 -19 47 -39
64 -44 51 -15 256 -25 256 -11 0 26 49 60 88 60 45 0 92 -31 92 -60 0 -10 5
-22 10 -25 12 -7 145 -21 303 -31 101 -6 110 -5 160 19 58 28 171 39 367 36
213 -3 204 -4 255 25 57 34 91 97 80 152 -8 47 -57 99 -110 120 -37 14 -44 20
-40 38 18 79 415 2632 411 2643 -3 7 -2 13 3 13 4 0 11 28 14 63 3 34 9 77 13
95 5 27 4 32 -12 31 -11 0 -476 -99 -1033 -220z m-1300 -336 c13 -16 12 -17
-3 -4 -10 7 -18 15 -18 17 0 8 8 3 21 -13z m2110 -240 c-12 -20 -14 -14 -5 12
4 9 9 14 11 11 3 -2 0 -13 -6 -23z m-101 -203 c-11 -22 -23 -40 -25 -40 -3 0
4 18 15 40 11 22 23 40 25 40 3 0 -4 -18 -15 -40z m-1690 -10 c12 -16 19 -30
16 -30 -2 0 -14 14 -26 30 -12 17 -19 30 -16 30 2 0 14 -13 26 -30z m1650 -60
c-6 -11 -13 -20 -16 -20 -2 0 0 9 6 20 6 11 13 20 16 20 2 0 0 -9 -6 -20z
m-1580 -40 c12 -16 19 -30 16 -30 -2 0 -14 14 -26 30 -12 17 -19 30 -16 30 2
0 14 -13 26 -30z m1551 -7 c-5 -10 -17 -27 -26 -38 -16 -19 -17 -19 -3 5 26
46 29 50 34 50 3 0 0 -8 -5 -17z m-1501 -63 c12 -16 19 -30 16 -30 -2 0 -14
14 -26 30 -12 17 -19 30 -16 30 2 0 14 -13 26 -30z m1410 -75 c-152 -222 -383
-441 -604 -574 -109 -66 -252 -135 -265 -127 -6 4 -20 21 -31 39 l-22 32 30
-34 29 -34 79 37 c288 136 551 356 746 624 64 87 90 113 38 37z m-1340 -25
c12 -16 19 -30 16 -30 -2 0 -14 14 -26 30 -12 17 -19 30 -16 30 2 0 14 -13 26
-30z m60 -85 c17 -25 29 -45 26 -45 -3 0 -19 20 -36 45 -17 25 -29 45 -26 45
3 0 19 -20 36 -45z m60 -85 c12 -16 19 -30 16 -30 -2 0 -14 14 -26 30 -12 17
-19 30 -16 30 2 0 14 -13 26 -30z m70 -100 c12 -16 19 -30 16 -30 -2 0 -14 14
-26 30 -12 17 -19 30 -16 30 2 0 14 -13 26 -30z m70 -100 c12 -16 19 -30 16
-30 -2 0 -14 14 -26 30 -12 17 -19 30 -16 30 2 0 14 -13 26 -30z m61 -87 c13
-16 12 -17 -3 -4 -17 13 -22 21 -14 21 2 0 10 -8 17 -17z m59 -83 c12 -16 19
-30 16 -30 -2 0 -14 14 -26 30 -12 17 -19 30 -16 30 2 0 14 -13 26 -30z"/>
</g>
</svg>
